# xmcd
#
# Track frame offsets:
#	183
#	11510
#	22795
#	32953
#	45675
#	57938
#	68803
#	80780
#	93520
#	107215
#	123018
#
# Disc length: 1818 seconds
#
# Revision: 0
# Processed by: cddbd v1.4PL0 Copyright (c) Steve Scherf et al.
# Submitted via: EasyCDDAExtractor 4.6.0.1
#
DISCID=8807180b
DTITLE=Don Williams  - The Pozo Seco Singersfeaturing
DYEAR=1979
DGENRE=Country
TTITLE0=Send some Time with me
TTITLE1=Storybook Children
TTITLE2=Take my Hand for a while
TTITLE3=Coming Apart
TTITLE4=On her way to being a Woman
TTITLE5=Always Something there to remind me
TTITLE6=Follow me Back to Louisville
TTITLE7=There´s never been a Time
TTITLE8=Ruby Tuesday
TTITLE9=Tears
TTITLE10=Where do i go from here
EXTD=
EXTT0=
EXTT1=
EXTT2=
EXTT3=
EXTT4=
EXTT5=
EXTT6=
EXTT7=
EXTT8=
EXTT9=
EXTT10=
PLAYORDER=
